# xmcd
#
# Track frame offsets: 
#        150
#        12742
#        39510
#        52987
#        65115
#        83925
#        97180
#        116210
#        136267
#        151697
#        168080
#        184055
#        195140
#        205650
#        227010
#        241110
#        262570
#        289197
#        302042
#        328367
#
# Disc length: 4530 seconds
#
# Revision: 0
# Processed by: cddbd v1.4PL0 Copyright (c) Steve Scherf et al.
# Submitted via: ExactAudioCopy v0.90b4
#
DISCID=0e11b014
DTITLE=Various Artist - Dvorana Country 3
DYEAR=1900
DGENRE=Country
TTITLE0=Somewhere South Of Macon
TTITLE1=Red River Valley
TTITLE2=Ghost Dance
TTITLE3=Outskirts Of Town
TTITLE4=Goodbye To A River
TTITLE5=Iron Horse
TTITLE6=Heaven's Door
TTITLE7=Adios Last Cowboy
TTITLE8=Lonesome, On'ry And Mean
TTITLE9=Long Black Limousine
TTITLE10=Whiskey River
TTITLE11=Time Of The Preacher
TTITLE12=Blue Eyes Crying In The Rain
TTITLE13=They All Went To Mexico
TTITLE14=The Last Cowboy Song
TTITLE15=Graceland
TTITLE16=Till I Gain Control Again
TTITLE17=Me And Paul
TTITLE18=Loving Her Was Easier (Than Anything I'll Ever Do Again)
TTITLE19=On The Oad Again
EXTD=
EXTT0=
EXTT1=
EXTT2=
EXTT3=
EXTT4=
EXTT5=
EXTT6=
EXTT7=
EXTT8=
EXTT9=
EXTT10=
EXTT11=
EXTT12=
EXTT13=
EXTT14=
EXTT15=
EXTT16=
EXTT17=
EXTT18=
EXTT19=
PLAYORDER=
